<svg data-v-1e121de1="" version="1.0" xmlns="http://www.w3.org/2000/svg" xmlns:xlink="http://www.w3.org/1999/xlink" width="100%" height="100%" viewBox="0 0 340.000000 250.000000" preserveAspectRatio="xMidYMid meet" color-interpolation-filters="sRGB"><rect data-v-1e121de1="" x="0" y="0" width="100%" height="100%" fill="#fff" fill-opacity="1"></rect>  <g data-v-1e121de1="" transform="translate(95,60.349281311035156)"><g fill="#f757af" hollow-target="text"><g mask="url(#046960e1-a250-46cd-9745-0666e9d09ec8)"><rect fill="#f757af" fill-opacity="0" stroke-width="2" x="0" y="0" width="150" height="129.30097012579375"></rect> <svg x="0" y="0" width="150" height="129.30097012579375" filtersec="colorsb9701349391"><svg xmlns="http://www.w3.org/2000/svg" xmlns:xlink="http://www.w3.org/1999/xlink" viewBox="0 0 110.91 95.61"><defs><linearGradient id="e86d6dfd-0675-4868-860e-728bfa49dd01" x1="24.57" y1="85.29" x2="89.61" y2="20.23" gradientTransform="matrix(1, 0, 0, -1, 0, 98)" gradientUnits="userSpaceOnUse"><stop offset="0" stop-color="#ffb2c2"></stop><stop offset="1" stop-color="#f85e8a"></stop></linearGradient></defs><title>资源 1</title><g id="ba8d120a-a0e5-4937-912d-eaf40763bc38"><g id="ff205d17-1bea-492c-be63-8d0680e4e58c"><path d="M9.75,53.78C5,35.32,19.56-8.2,74.87,5.9c53,13.53,25.55,77.68-8,87.24-29.35,8.37-42.7-5.48-32-27.83C42.33,49.62,50,36.75,57.33,41.14c3.93,2.37,4.11,8.62-2.5,8.62s-8.45,10.67,2.92,8.78c6.06-1,8,3.63,10.9,8.1s21.77,5.28,9-19.62c-8.25-16-17-23-25.49-23S34.68,33,22.31,55.11C17.65,63.46,12.72,65.32,9.75,53.78Z" fill="url(#e86d6dfd-0675-4868-860e-728bfa49dd01)"></path><path d="M107.12,27.49c2.44,0,2.55-6.12-1.06-3.59C104,25.34,104.68,27.48,107.12,27.49Z" fill="#ab8eeb"></path><path d="M102.41,20.23c-1.86,4.7,6,1.35,8.07-1.32S106.67,9.49,102.41,20.23Z" fill="#ffbd88"></path><path d="M13.35,69C-4.85,74.07-3,96.48,10.22,82.7,19.68,72.81,22.36,66.54,13.35,69Z" fill="#ab8eeb"></path><path d="M24.7,76.43c-8.69,5.51-3.91,15,.46,11.36S27.74,74.5,24.7,76.43Z" fill="#f757af"></path><path d="M83.4,85.6c-2.45.1-1.82,7.21,2.35,6.2C90.48,90.65,85.84,85.49,83.4,85.6Z" fill="#ffbd88"></path><path d="M14.22,25.76a31.66,31.66,0,0,0-6,5.44c-10.4,12.21-5.88,25,2.72,26.25h0c4.8.7,10.88-2.2,16.33-10.81C37.19,30.63,45,24,52.16,24c4.85,0,9.68,2.19,14.51,7C55.28,18.28,30.19,14.62,14.22,25.76Z" fill="#ff3e24" opacity="0.5"></path><path d="M104.62,40.27C91.51,22.49,56.43,16.1,42.3,28c3.48-2.75,6.72-4,9.86-4,8.49,0,17.24,7,25.49,23,12.77,24.9-6.1,24.09-9,19.62s-4.84-9.1-10.9-8.1c-11.37,1.89-9.54-8.77-2.92-8.78s6.43-6.25,2.5-8.62c-7.06-4.24-14.49,7.63-21.73,22.6C30.34,74.53,59,88.4,82.24,84.72A63.65,63.65,0,0,0,97.32,66.36a64,64,0,0,1-15.08,18.4c9.79-1.54,18.62-6.19,23.55-15.48C111.86,57.84,110.31,48,104.62,40.27Z" fill="#3c2299" opacity="0.5" style="isolation:isolate"></path><path d="M75.1,2.33c-1.55.6-3.4,1.38-5.48,2.38C58.2,10.2,39.73,22.42,25.55,49.47,36.3,31.41,44.53,24,52.16,24c8.49,0,17.24,7,25.49,23C90,71.1,72.76,71.14,69,67.07c6.84,8.24,24,1.8,29.67-31.66A94.79,94.79,0,0,0,100,22.72C100.73.09,89.18-3.17,75.1,2.33Z" fill="#ff00a4" opacity="0.3" style="isolation:isolate"></path></g></g></svg></svg> <!----></g> <g transform="translate(0.5500030517578125,33.41447067260742)"><g fill-rule="" transform="translate(0,0)"><g><path d="M28.65-5.20L28.65-5.20Q31.25-6.55 34.50-10.15L34.50-10.15L21.70-10.15Q25.55-6.60 28.65-5.20ZM22.50-20.75L41.55-20.75L41.55-26.05L9.20-26.05L9.20-20.75L16.15-20.75Q16.60-22.60 16.95-24.65L16.95-24.65L23.05-23.95L22.95-23.35Q22.70-22.30 22.50-20.75L22.50-20.75ZM4.85 3.90L4.85 3.90Q3.95 2.20 2.30 0.15L2.30 0.15Q11.55-4.80 15.35-17.50L15.35-17.50L7.35-17.50L7.35-21.30L3.55-21.30L3.55-29.40L12.15-29.40Q11.20-32.35 10.75-33.50L10.75-33.50L15.40-35.60Q9.55-35.35 5.80-35.35L5.80-35.35Q5.75-36.20 5.43-37.27Q5.10-38.35 5.05-38.40L5.05-38.40Q28.35-38.95 43.05-41.15L43.05-41.15L44.25-37.85Q31.40-36.10 15.35-35.55L15.35-35.55Q17.20-31.75 17.95-29.40L17.95-29.40L23.40-29.40Q22.55-32.65 21.95-34.05L21.95-34.05L26.90-35.80Q27.75-33.75 28.28-32.15Q28.80-30.55 29.20-29.40L29.20-29.40L32.15-29.40Q34.45-33.25 35.65-36.45L35.65-36.45L41.10-34.75L40.90-34.45Q39.60-32.25 37.60-29.40L37.60-29.40L47.35-29.40L47.35-21.30L43.50-21.30L43.50-17.50L21.55-17.50Q21.05-15.90 20.15-13.50L20.15-13.50L37.60-13.50L38.95-13.85L41.70-11.95Q39.20-7.45 33.05-3.30L33.05-3.30Q39.80-1.05 47.10-0.35L47.10-0.35Q45.80 1.90 45.25 3.30L45.25 3.30Q35.20 1.95 28.70-0.95L28.70-0.95Q23.05 1.70 14.45 3.30L14.45 3.30Q13.85 1.75 12.85-0.10L12.85-0.10Q18.60-0.95 24.30-3.15L24.30-3.15Q19.30-6.25 17.60-8.15L17.60-8.15Q14.25-1.65 4.85 3.90ZM60.05-16.25L63.75-13.50Q66.05-18.70 67.25-27.95L67.25-27.95L62.90-27.95Q61.60-22 60.05-16.25L60.05-16.25ZM54.90 4.25L54.90 4.25Q53.90 2.45 52.40 0.40L52.40 0.40Q57.25-2.05 61.50-8.90L61.50-8.90Q57.10-12.65 53.45-15.25L53.45-15.25Q54.95-19.80 56.65-27.95L56.65-27.95L52.45-27.95L52.45-31.65L57.40-31.65Q58.40-36.95 58.85-41.65L58.85-41.65L65.25-41.25Q64.70-37.25 63.60-31.65L63.60-31.65L69.05-31.65L70.15-31.85L73.75-30.95Q72.75-18.55 68.55-9.65L68.55-9.65Q72.50-6.10 74.05-4.15L74.05-4.15L70.45 0.55Q67.55-3.35 65.80-5L65.80-5Q62.55-0.10 54.90 4.25ZM77.05 3.70L77.05 3.70Q76.65 1.60 75.80-0.15L75.80-0.15L80.30-0.10Q82.60-0.10 82.75-0.20Q82.90-0.30 82.90-17.05L82.90-17.05L71.85-17.05L71.85-20.90L82.90-20.90L82.90-26Q86.45-29.25 90-34.60L90-34.60L73.95-34.60L73.95-38.25L93.40-38.25L95.10-38.65L98.40-36.30Q95.15-31.35 89.45-26.05L89.45-26.05L89.45-20.90L100-20.90L100-17.05L89.45-17.05L89.45-1.30Q89.45 2 86.85 2.80L86.85 2.80Q85.35 3.35 83.20 3.53Q81.05 3.70 77.05 3.70ZM118.85-14.50L118.85 3.60L112.75 3.60L112.75-12.60L104.95-10.20L103.85-14.30Q107.95-15.35 112.75-16.70L112.75-16.70L112.75-27.95L110.60-27.95Q109.70-24 108.10-20L108.10-20Q105.50-22.20 103.55-23.15L103.55-23.15Q104.55-25.50 105.33-29.93Q106.10-34.35 106.45-39L106.45-39L112.15-38.05Q111.85-35.40 111.30-31.75L111.30-31.75L112.75-31.75L112.75-41.65L118.85-41.65L118.85-31.75L123.50-31.75L123.50-27.95L118.85-27.95L118.85-18.50L124.10-20L124.60-16.30Q121.50-15.30 118.85-14.50L118.85-14.50ZM128.30 3.25L128.30 3.25Q126.30 1.35 124.40 0.10L124.40 0.10Q129.50-3.70 133.50-11.80Q137.50-19.90 139.50-29.90L139.50-29.90L137.90-29.90Q134.05-15.35 125.05-6.95L125.05-6.95Q122.20-9.85 121.35-10.10L121.35-10.10Q124.35-12.50 127.33-17.85Q130.30-23.20 132.30-29.90L132.30-29.90L130.40-29.90Q128.25-24.75 124.25-19.95L124.25-19.95Q121.35-22.60 120.15-23.20L120.15-23.20Q122.50-25.85 124.68-30.88Q126.85-35.90 128.15-41.85L128.15-41.85L134-40.75Q133.35-37.80 131.90-33.60L131.90-33.60Q149.40-33.60 151.20-33.40L151.20-33.40L151.15-31.75Q150.35-15.25 149.50-8.10Q148.65-0.95 147.30 0.45L147.30 0.45Q146.55 1.60 145.50 2.20L145.50 2.20Q143.75 3.15 139.65 3.15L139.65 3.15Q138.05 3.15 136.05 3.05L136.05 3.05Q135.95 1.25 135.10-0.90L135.10-0.90Q139.20-0.65 140.55-0.65L140.55-0.65Q142.30-0.65 143.35-8.90L143.35-8.90Q144.20-15.40 144.85-29.90L144.85-29.90L145.30-29.90Q143.40-20.10 139.45-11.43Q135.50-2.75 128.30 3.25Z" transform="translate(-2.3000000000000003, 41.85)"></path></g></g> <g fill-rule="" hollow-target="custom" fill="#f757af" transform="translate(22.419998168945312,53.099998474121094)"><!----> <!----> <g><path d="M1.08-8.58L2.25-8.58L2.25 0L1.08 0L1.08-8.58ZM12.56-1.08L11.67-1.78L12.28-2.48L13.36-1.64Q14.34-2.63 14.34-4.27L14.34-4.27Q14.16-7.64 11.34-7.83L11.34-7.83Q8.48-7.69 8.34-4.27L8.34-4.27Q8.48-0.94 11.34-0.80L11.34-0.80Q12.05-0.80 12.56-1.08L12.56-1.08ZM14.30-0.94L15.42-0.05L14.86 0.56L13.55-0.33Q12.70 0.14 11.34 0.14L11.34 0.14Q7.41 0 7.13-4.27L7.13-4.27Q7.36-8.72 11.34-8.81L11.34-8.81Q15.23-8.67 15.52-4.27L15.52-4.27Q15.47-2.20 14.30-0.94L14.30-0.94ZM22.55-3.19L22.55-8.58L23.72-8.58L23.72-3.05Q23.58 0.05 20.20 0.14L20.20 0.14Q17.06 0.05 16.92-2.86L16.92-2.86L16.92-8.58L18.09-8.58L18.09-3.19Q18.14-0.84 20.25-0.80L20.25-0.80Q22.55-0.84 22.55-3.19L22.55-3.19ZM31.17 0L30.33-2.48L26.86-2.48L25.97 0L24.80 0L28.03-8.58L29.34-8.58L32.44 0L31.17 0ZM28.59-7.31L27.23-3.52L29.91-3.52L28.64-7.31L28.59-7.31ZM33.47-8.58L34.64-8.58L34.64-1.03L39-1.03L39 0L33.47 0L33.47-8.58ZM40.31-8.58L41.48-8.58L41.48 0L40.31 0L40.31-8.58ZM45.66-7.59L42.75-7.59L42.75-8.58L49.69-8.58L49.69-7.59L46.78-7.59L46.78 0L45.66 0L45.66-7.59ZM57.66-8.58L54.42-3.47L54.42 0L53.25 0L53.25-3.47L50.02-8.58L51.38-8.58L53.81-4.45L56.30-8.58L57.66-8.58ZM68.44-3.61L65.81-3.61L65.81-4.59L69.56-4.59L69.56 0L68.81 0L68.53-1.08Q67.55 0.09 65.72 0.14L65.72 0.14Q63.98 0.14 63.05-0.75L63.05-0.75Q61.64-2.06 61.69-4.36L61.69-4.36Q62.02-8.63 65.77-8.81L65.77-8.81Q68.95-8.63 69.42-6L69.42-6L68.30-6Q67.83-7.78 65.72-7.83L65.72-7.83Q63.05-7.64 62.91-4.31L62.91-4.31Q62.91-0.75 65.77-0.75L65.77-0.75Q66.80-0.75 67.55-1.31L67.55-1.31Q68.48-2.06 68.44-3.61L68.44-3.61ZM78.14-4.27L78.14-4.27Q77.95-7.64 75.14-7.83L75.14-7.83Q72.28-7.69 72.14-4.27L72.14-4.27Q72.28-0.94 75.14-0.80L75.14-0.80Q77.95-0.98 78.14-4.27ZM79.31-4.27L79.31-4.27Q79.03 0 75.14 0.14L75.14 0.14Q71.20 0 70.92-4.27L70.92-4.27Q71.16-8.72 75.14-8.81L75.14-8.81Q79.03-8.67 79.31-4.27ZM87.47-4.27L87.47-4.27Q87.28-7.64 84.47-7.83L84.47-7.83Q81.61-7.69 81.47-4.27L81.47-4.27Q81.61-0.94 84.47-0.80L84.47-0.80Q87.28-0.98 87.47-4.27ZM88.64-4.27L88.64-4.27Q88.36 0 84.47 0.14L84.47 0.14Q80.53 0 80.25-4.27L80.25-4.27Q80.48-8.72 84.47-8.81L84.47-8.81Q88.36-8.67 88.64-4.27ZM93.52 0L90.05 0L90.05-8.58L93.56-8.58Q97.03-8.39 97.17-4.41L97.17-4.41Q96.98-0.09 93.52 0L93.52 0ZM93.38-7.64L91.22-7.64L91.22-0.98L93.47-0.98Q95.91-1.13 96-4.31L96-4.31Q95.95-7.55 93.38-7.64L93.38-7.64ZM104.91-6.09L104.91-6.09L103.83-6.09Q103.73-7.73 101.67-7.83L101.67-7.83Q99.75-7.78 99.75-6.33L99.75-6.33Q99.75-5.39 100.78-5.25L100.78-5.25L103.22-4.69Q105.14-4.22 105.14-2.34L105.14-2.34Q105.09 0.05 101.77 0.14L101.77 0.14Q99.94 0.14 99.19-0.61L99.19-0.61Q98.25-1.31 98.30-2.77L98.30-2.77L99.42-2.77Q99.47-0.80 101.77-0.75L101.77-0.75Q104.02-0.80 104.06-2.20L104.06-2.20Q104.25-3.38 102.19-3.75L102.19-3.75L100.41-4.13Q98.58-4.64 98.58-6.19L98.58-6.19Q98.72-8.72 101.58-8.81L101.58-8.81Q104.81-8.81 104.91-6.09Z" transform="translate(-1.078125, 8.8125)"></path></g></g></g></g></g><mask id="046960e1-a250-46cd-9745-0666e9d09ec8"><g fill="white"><rect fill-opacity="1" stroke-width="2" x="0" y="0" width="150" height="129.30097012579375" ></rect> <svg x="0" y="0" width="150" height="129.30097012579375" filtersec="colorsb9701349391" ><svg xmlns="http://www.w3.org/2000/svg" xmlns:xlink="http://www.w3.org/1999/xlink" viewBox="0 0 110.91 95.61"><defs><linearGradient id="e86d6dfd-0675-4868-860e-728bfa49dd01" x1="24.57" y1="85.29" x2="89.61" y2="20.23" gradientTransform="matrix(1, 0, 0, -1, 0, 98)" gradientUnits="userSpaceOnUse"><stop offset="0" stop-color="#ffb2c2"></stop><stop offset="1" stop-color="#f85e8a"></stop></linearGradient></defs><title>资源 1</title><g id="ba8d120a-a0e5-4937-912d-eaf40763bc38"><g id="ff205d17-1bea-492c-be63-8d0680e4e58c"><path d="M9.75,53.78C5,35.32,19.56-8.2,74.87,5.9c53,13.53,25.55,77.68-8,87.24-29.35,8.37-42.7-5.48-32-27.83C42.33,49.62,50,36.75,57.33,41.14c3.93,2.37,4.11,8.62-2.5,8.62s-8.45,10.67,2.92,8.78c6.06-1,8,3.63,10.9,8.1s21.77,5.28,9-19.62c-8.25-16-17-23-25.49-23S34.68,33,22.31,55.11C17.65,63.46,12.72,65.32,9.75,53.78Z"></path><path d="M107.12,27.49c2.44,0,2.55-6.12-1.06-3.59C104,25.34,104.68,27.48,107.12,27.49Z"></path><path d="M102.41,20.23c-1.86,4.7,6,1.35,8.07-1.32S106.67,9.49,102.41,20.23Z"></path><path d="M13.35,69C-4.85,74.07-3,96.48,10.22,82.7,19.68,72.81,22.36,66.54,13.35,69Z"></path><path d="M24.7,76.43c-8.69,5.51-3.91,15,.46,11.36S27.74,74.5,24.7,76.43Z"></path><path d="M83.4,85.6c-2.45.1-1.82,7.21,2.35,6.2C90.48,90.65,85.84,85.49,83.4,85.6Z"></path><path d="M14.22,25.76a31.66,31.66,0,0,0-6,5.44c-10.4,12.21-5.88,25,2.72,26.25h0c4.8.7,10.88-2.2,16.33-10.81C37.19,30.63,45,24,52.16,24c4.85,0,9.68,2.19,14.51,7C55.28,18.28,30.19,14.62,14.22,25.76Z"></path><path d="M104.62,40.27C91.51,22.49,56.43,16.1,42.3,28c3.48-2.75,6.72-4,9.86-4,8.49,0,17.24,7,25.49,23,12.77,24.9-6.1,24.09-9,19.62s-4.84-9.1-10.9-8.1c-11.37,1.89-9.54-8.77-2.92-8.78s6.43-6.25,2.5-8.62c-7.06-4.24-14.49,7.63-21.73,22.6C30.34,74.53,59,88.4,82.24,84.72A63.65,63.65,0,0,0,97.32,66.36a64,64,0,0,1-15.08,18.4c9.79-1.54,18.62-6.19,23.55-15.48C111.86,57.84,110.31,48,104.62,40.27Z"></path><path d="M75.1,2.33c-1.55.6-3.4,1.38-5.48,2.38C58.2,10.2,39.73,22.42,25.55,49.47,36.3,31.41,44.53,24,52.16,24c8.49,0,17.24,7,25.49,23C90,71.1,72.76,71.14,69,67.07c6.84,8.24,24,1.8,29.67-31.66A94.79,94.79,0,0,0,100,22.72C100.73.09,89.18-3.17,75.1,2.33Z"></path></g></g></svg></svg> </g> <g transform="translate(0.5500030517578125,33.41447067260742)" fill="black" stroke="#000" stroke-width="6" stroke-linejoin="round"><g fill-rule="" transform="translate(0,0)"><g><path d="M28.65-5.20L28.65-5.20Q31.25-6.55 34.50-10.15L34.50-10.15L21.70-10.15Q25.55-6.60 28.65-5.20ZM22.50-20.75L41.55-20.75L41.55-26.05L9.20-26.05L9.20-20.75L16.15-20.75Q16.60-22.60 16.95-24.65L16.95-24.65L23.05-23.95L22.95-23.35Q22.70-22.30 22.50-20.75L22.50-20.75ZM4.85 3.90L4.85 3.90Q3.95 2.20 2.30 0.15L2.30 0.15Q11.55-4.80 15.35-17.50L15.35-17.50L7.35-17.50L7.35-21.30L3.55-21.30L3.55-29.40L12.15-29.40Q11.20-32.35 10.75-33.50L10.75-33.50L15.40-35.60Q9.55-35.35 5.80-35.35L5.80-35.35Q5.75-36.20 5.43-37.27Q5.10-38.35 5.05-38.40L5.05-38.40Q28.35-38.95 43.05-41.15L43.05-41.15L44.25-37.85Q31.40-36.10 15.35-35.55L15.35-35.55Q17.20-31.75 17.95-29.40L17.95-29.40L23.40-29.40Q22.55-32.65 21.95-34.05L21.95-34.05L26.90-35.80Q27.75-33.75 28.28-32.15Q28.80-30.55 29.20-29.40L29.20-29.40L32.15-29.40Q34.45-33.25 35.65-36.45L35.65-36.45L41.10-34.75L40.90-34.45Q39.60-32.25 37.60-29.40L37.60-29.40L47.35-29.40L47.35-21.30L43.50-21.30L43.50-17.50L21.55-17.50Q21.05-15.90 20.15-13.50L20.15-13.50L37.60-13.50L38.95-13.85L41.70-11.95Q39.20-7.45 33.05-3.30L33.05-3.30Q39.80-1.05 47.10-0.35L47.10-0.35Q45.80 1.90 45.25 3.30L45.25 3.30Q35.20 1.95 28.70-0.95L28.70-0.95Q23.05 1.70 14.45 3.30L14.45 3.30Q13.85 1.75 12.85-0.10L12.85-0.10Q18.60-0.95 24.30-3.15L24.30-3.15Q19.30-6.25 17.60-8.15L17.60-8.15Q14.25-1.65 4.85 3.90ZM60.05-16.25L63.75-13.50Q66.05-18.70 67.25-27.95L67.25-27.95L62.90-27.95Q61.60-22 60.05-16.25L60.05-16.25ZM54.90 4.25L54.90 4.25Q53.90 2.45 52.40 0.40L52.40 0.40Q57.25-2.05 61.50-8.90L61.50-8.90Q57.10-12.65 53.45-15.25L53.45-15.25Q54.95-19.80 56.65-27.95L56.65-27.95L52.45-27.95L52.45-31.65L57.40-31.65Q58.40-36.95 58.85-41.65L58.85-41.65L65.25-41.25Q64.70-37.25 63.60-31.65L63.60-31.65L69.05-31.65L70.15-31.85L73.75-30.95Q72.75-18.55 68.55-9.65L68.55-9.65Q72.50-6.10 74.05-4.15L74.05-4.15L70.45 0.55Q67.55-3.35 65.80-5L65.80-5Q62.55-0.10 54.90 4.25ZM77.05 3.70L77.05 3.70Q76.65 1.60 75.80-0.15L75.80-0.15L80.30-0.10Q82.60-0.10 82.75-0.20Q82.90-0.30 82.90-17.05L82.90-17.05L71.85-17.05L71.85-20.90L82.90-20.90L82.90-26Q86.45-29.25 90-34.60L90-34.60L73.95-34.60L73.95-38.25L93.40-38.25L95.10-38.65L98.40-36.30Q95.15-31.35 89.45-26.05L89.45-26.05L89.45-20.90L100-20.90L100-17.05L89.45-17.05L89.45-1.30Q89.45 2 86.85 2.80L86.85 2.80Q85.35 3.35 83.20 3.53Q81.05 3.70 77.05 3.70ZM118.85-14.50L118.85 3.60L112.75 3.60L112.75-12.60L104.95-10.20L103.85-14.30Q107.95-15.35 112.75-16.70L112.75-16.70L112.75-27.95L110.60-27.95Q109.70-24 108.10-20L108.10-20Q105.50-22.20 103.55-23.15L103.55-23.15Q104.55-25.50 105.33-29.93Q106.10-34.35 106.45-39L106.45-39L112.15-38.05Q111.85-35.40 111.30-31.75L111.30-31.75L112.75-31.75L112.75-41.65L118.85-41.65L118.85-31.75L123.50-31.75L123.50-27.95L118.85-27.95L118.85-18.50L124.10-20L124.60-16.30Q121.50-15.30 118.85-14.50L118.85-14.50ZM128.30 3.25L128.30 3.25Q126.30 1.35 124.40 0.10L124.40 0.10Q129.50-3.70 133.50-11.80Q137.50-19.90 139.50-29.90L139.50-29.90L137.90-29.90Q134.05-15.35 125.05-6.95L125.05-6.95Q122.20-9.85 121.35-10.10L121.35-10.10Q124.35-12.50 127.33-17.85Q130.30-23.20 132.30-29.90L132.30-29.90L130.40-29.90Q128.25-24.75 124.25-19.95L124.25-19.95Q121.35-22.60 120.15-23.20L120.15-23.20Q122.50-25.85 124.68-30.88Q126.85-35.90 128.15-41.85L128.15-41.85L134-40.75Q133.35-37.80 131.90-33.60L131.90-33.60Q149.40-33.60 151.20-33.40L151.20-33.40L151.15-31.75Q150.35-15.25 149.50-8.10Q148.65-0.95 147.30 0.45L147.30 0.45Q146.55 1.60 145.50 2.20L145.50 2.20Q143.75 3.15 139.65 3.15L139.65 3.15Q138.05 3.15 136.05 3.05L136.05 3.05Q135.95 1.25 135.10-0.90L135.10-0.90Q139.20-0.65 140.55-0.65L140.55-0.65Q142.30-0.65 143.35-8.90L143.35-8.90Q144.20-15.40 144.85-29.90L144.85-29.90L145.30-29.90Q143.40-20.10 139.45-11.43Q135.50-2.75 128.30 3.25Z" transform="translate(-2.3000000000000003, 41.85)"></path></g>       </g> <g fill-rule="" hollow-target="custom" transform="translate(22.419998168945312,53.099998474121094)" fill="white">  <g><path d="M1.08-8.58L2.25-8.58L2.25 0L1.08 0L1.08-8.58ZM12.56-1.08L11.67-1.78L12.28-2.48L13.36-1.64Q14.34-2.63 14.34-4.27L14.34-4.27Q14.16-7.64 11.34-7.83L11.34-7.83Q8.48-7.69 8.34-4.27L8.34-4.27Q8.48-0.94 11.34-0.80L11.34-0.80Q12.05-0.80 12.56-1.08L12.56-1.08ZM14.30-0.94L15.42-0.05L14.86 0.56L13.55-0.33Q12.70 0.14 11.34 0.14L11.34 0.14Q7.41 0 7.13-4.27L7.13-4.27Q7.36-8.72 11.34-8.81L11.34-8.81Q15.23-8.67 15.52-4.27L15.52-4.27Q15.47-2.20 14.30-0.94L14.30-0.94ZM22.55-3.19L22.55-8.58L23.72-8.58L23.72-3.05Q23.58 0.05 20.20 0.14L20.20 0.14Q17.06 0.05 16.92-2.86L16.92-2.86L16.92-8.58L18.09-8.58L18.09-3.19Q18.14-0.84 20.25-0.80L20.25-0.80Q22.55-0.84 22.55-3.19L22.55-3.19ZM31.17 0L30.33-2.48L26.86-2.48L25.97 0L24.80 0L28.03-8.58L29.34-8.58L32.44 0L31.17 0ZM28.59-7.31L27.23-3.52L29.91-3.52L28.64-7.31L28.59-7.31ZM33.47-8.58L34.64-8.58L34.64-1.03L39-1.03L39 0L33.47 0L33.47-8.58ZM40.31-8.58L41.48-8.58L41.48 0L40.31 0L40.31-8.58ZM45.66-7.59L42.75-7.59L42.75-8.58L49.69-8.58L49.69-7.59L46.78-7.59L46.78 0L45.66 0L45.66-7.59ZM57.66-8.58L54.42-3.47L54.42 0L53.25 0L53.25-3.47L50.02-8.58L51.38-8.58L53.81-4.45L56.30-8.58L57.66-8.58ZM68.44-3.61L65.81-3.61L65.81-4.59L69.56-4.59L69.56 0L68.81 0L68.53-1.08Q67.55 0.09 65.72 0.14L65.72 0.14Q63.98 0.14 63.05-0.75L63.05-0.75Q61.64-2.06 61.69-4.36L61.69-4.36Q62.02-8.63 65.77-8.81L65.77-8.81Q68.95-8.63 69.42-6L69.42-6L68.30-6Q67.83-7.78 65.72-7.83L65.72-7.83Q63.05-7.64 62.91-4.31L62.91-4.31Q62.91-0.75 65.77-0.75L65.77-0.75Q66.80-0.75 67.55-1.31L67.55-1.31Q68.48-2.06 68.44-3.61L68.44-3.61ZM78.14-4.27L78.14-4.27Q77.95-7.64 75.14-7.83L75.14-7.83Q72.28-7.69 72.14-4.27L72.14-4.27Q72.28-0.94 75.14-0.80L75.14-0.80Q77.95-0.98 78.14-4.27ZM79.31-4.27L79.31-4.27Q79.03 0 75.14 0.14L75.14 0.14Q71.20 0 70.92-4.27L70.92-4.27Q71.16-8.72 75.14-8.81L75.14-8.81Q79.03-8.67 79.31-4.27ZM87.47-4.27L87.47-4.27Q87.28-7.64 84.47-7.83L84.47-7.83Q81.61-7.69 81.47-4.27L81.47-4.27Q81.61-0.94 84.47-0.80L84.47-0.80Q87.28-0.98 87.47-4.27ZM88.64-4.27L88.64-4.27Q88.36 0 84.47 0.14L84.47 0.14Q80.53 0 80.25-4.27L80.25-4.27Q80.48-8.72 84.47-8.81L84.47-8.81Q88.36-8.67 88.64-4.27ZM93.52 0L90.05 0L90.05-8.58L93.56-8.58Q97.03-8.39 97.17-4.41L97.17-4.41Q96.98-0.09 93.52 0L93.52 0ZM93.38-7.64L91.22-7.64L91.22-0.98L93.47-0.98Q95.91-1.13 96-4.31L96-4.31Q95.95-7.55 93.38-7.64L93.38-7.64ZM104.91-6.09L104.91-6.09L103.83-6.09Q103.73-7.73 101.67-7.83L101.67-7.83Q99.75-7.78 99.75-6.33L99.75-6.33Q99.75-5.39 100.78-5.25L100.78-5.25L103.22-4.69Q105.14-4.22 105.14-2.34L105.14-2.34Q105.09 0.05 101.77 0.14L101.77 0.14Q99.94 0.14 99.19-0.61L99.19-0.61Q98.25-1.31 98.30-2.77L98.30-2.77L99.42-2.77Q99.47-0.80 101.77-0.75L101.77-0.75Q104.02-0.80 104.06-2.20L104.06-2.20Q104.25-3.38 102.19-3.75L102.19-3.75L100.41-4.13Q98.58-4.64 98.58-6.19L98.58-6.19Q98.72-8.72 101.58-8.81L101.58-8.81Q104.81-8.81 104.91-6.09Z" transform="translate(-1.078125, 8.8125)"></path></g></g></g></mask></svg>
